<svg width="61" height="55" viewBox="0 0 61 55" fill="none" xmlns="http://www.w3.org/2000/svg">
<path d="M55.4801 6.50001C52.3 3.31163 48.0845 1.36563 43.5951 1.01352C39.1057 0.661408 34.6384 1.92641 31.0001 4.58001C27.1831 1.74092 22.4321 0.453542 17.7039 0.97712C12.9756 1.5007 8.62141 3.79634 5.51801 7.40176C2.41461 11.0072 0.792561 15.6546 0.978498 20.4081C1.16443 25.1615 3.14455 29.668 6.52009 33.02L25.1501 51.68C26.7101 53.2153 28.8113 54.0758 31.0001 54.0758C33.1889 54.0758 35.29 53.2153 36.8501 51.68L55.4801 33.02C58.9828 29.4958 60.9489 24.7288 60.9489 19.76C60.9489 14.7912 58.9828 10.0242 55.4801 6.50001ZM51.2501 28.88L32.6201 47.51C32.4081 47.7241 32.1558 47.894 31.8777 48.01C31.5997 48.1259 31.3014 48.1856 31.0001 48.1856C30.6988 48.1856 30.4005 48.1259 30.1225 48.01C29.8444 47.894 29.5921 47.7241 29.3801 47.51L10.7501 28.79C8.39737 26.385 7.07992 23.1544 7.07992 19.79C7.07992 16.4256 8.39737 13.195 10.7501 10.79C13.1476 8.42297 16.381 7.09571 19.7501 7.09571C23.1192 7.09571 26.3526 8.42297 28.7501 10.79C29.029 11.0712 29.3608 11.2944 29.7264 11.4467C30.0919 11.599 30.4841 11.6774 30.8801 11.6774C31.2761 11.6774 31.6682 11.599 32.0338 11.4467C32.3994 11.2944 32.7312 11.0712 33.0101 10.79C35.4076 8.42297 38.641 7.09571 42.0101 7.09571C45.3792 7.09571 48.6126 8.42297 51.0101 10.79C53.3951 13.1635 54.7559 16.3766 54.8007 19.7411C54.8456 23.1056 53.571 26.3538 51.2501 28.79V28.88Z" fill="#FDFDFD"/>
</svg>
