<svg width="21" height="17" viewBox="0 0 21 17" fill="none" xmlns="http://www.w3.org/2000/svg">
<path d="M20.4899 6.18999L19.4899 5.63999L10.4899 0.639987H10.3799C10.3186 0.614065 10.255 0.593977 10.1899 0.579987H9.99988H9.81988C9.75156 0.593986 9.68462 0.614066 9.61988 0.639987H9.50988L0.509878 5.63999C0.35598 5.7272 0.227972 5.85368 0.138912 6.00652C0.0498528 6.15936 0.00292969 6.33309 0.00292969 6.50999C0.00292969 6.68688 0.0498528 6.86061 0.138912 7.01345C0.227972 7.16629 0.35598 7.29277 0.509878 7.37999L2.99988 8.75999V13.5C2.99988 14.2956 3.31595 15.0587 3.87856 15.6213C4.44117 16.1839 5.20423 16.5 5.99988 16.5H13.9999C14.7955 16.5 15.5586 16.1839 16.1212 15.6213C16.6838 15.0587 16.9999 14.2956 16.9999 13.5V8.75999L18.9999 7.63999V10.5C18.9999 10.7652 19.1052 11.0196 19.2928 11.2071C19.4803 11.3946 19.7347 11.5 19.9999 11.5C20.2651 11.5 20.5194 11.3946 20.707 11.2071C20.8945 11.0196 20.9999 10.7652 20.9999 10.5V7.05999C20.9996 6.88279 20.9522 6.70886 20.8626 6.55599C20.773 6.40312 20.6443 6.27681 20.4899 6.18999ZM14.9999 13.5C14.9999 13.7652 14.8945 14.0196 14.707 14.2071C14.5194 14.3946 14.2651 14.5 13.9999 14.5H5.99988C5.73466 14.5 5.48031 14.3946 5.29277 14.2071C5.10524 14.0196 4.99988 13.7652 4.99988 13.5V9.86999L9.50988 12.37L9.65988 12.43H9.74988C9.83288 12.4404 9.91687 12.4404 9.99988 12.43C10.0829 12.4404 10.1669 12.4404 10.2499 12.43H10.3399C10.393 12.4188 10.4437 12.3985 10.4899 12.37L14.9999 9.86999V13.5ZM9.99988 10.36L3.05988 6.49999L9.99988 2.63999L16.9399 6.49999L9.99988 10.36Z" fill="#FDFDFD"/>
</svg>
